<?xml version="1.0" encoding="UTF-8"?>
<svg width="33px" height="34px" viewBox="0 0 33 34" version="1.1" xmlns="http://www.w3.org/2000/svg" xmlns:xlink="http://www.w3.org/1999/xlink">
    <!-- Generator: Sketch 61 (89581) - https://sketch.com -->
    <title>nas</title>
    <desc>Created with Sketch.</desc>
    <g id="页面-1" stroke="none" stroke-width="1" fill="none" fill-rule="evenodd">
        <g id="nas" fill="#1296DB" fill-rule="nonzero">
            <path d="M3.30337891,0 C1.47992969,0 0.0120195312,1.46791016 0.0120195312,3.29132617 L0.0120195312,30.7086406 C0.0120195312,32.5318906 1.47992969,34 3.30337891,34 L29.6341211,34 C31.4575703,34 32.9254805,32.5319238 32.9254805,30.7086406 L32.9254805,3.29132617 C32.9254805,1.46791016 31.4575703,0 29.6341211,0 L3.30337891,0 Z M4.12615234,3.29132615 C4.71417934,3.29122383 5.25757274,3.60490599 5.5515625,4.11416602 C5.84568192,4.62334912 5.84568192,5.25079541 5.5515625,5.75997852 C5.2575221,6.26916187 4.71413824,6.58276258 4.12615234,6.58261919 C3.21744922,6.58248633 2.48083789,5.84570898 2.48083789,4.93697266 C2.48083789,4.02820313 3.21744922,3.29149219 4.12618555,3.29132615 L4.12615234,3.29132615 Z M8.24035156,3.29132617 L29.6341211,3.29132617 L29.6341211,30.7086406 L8.24035156,30.7086406 L8.24035156,3.29132617 Z M9.88599805,4.93697266 L9.88599805,29.0629609 L14.8229707,29.0629609 L14.8229707,4.93697266 L9.88599805,4.93697266 Z M16.4687832,4.93697266 L16.4687832,29.0629609 L21.4057559,29.0629609 L21.4057559,4.93697266 L16.4687832,4.93697266 Z M23.0514355,4.93697266 L23.0514355,29.0629609 L27.9884082,29.0629609 L27.9884082,4.93697266 L23.0514355,4.93697266 L23.0514355,4.93697266 Z M11.5316777,6.58261914 L13.1773242,6.58261914 L13.1773242,8.22829883 L11.5316777,8.22829883 L11.5316777,6.58261914 Z M18.1144297,6.58261914 L19.7600762,6.58261914 L19.7600762,8.22829883 L18.1144297,8.22829883 L18.1144297,6.58261914 Z M24.697082,6.58261914 L26.3427617,6.58261914 L26.3427617,8.22829883 L24.697082,8.22829883 L24.697082,6.58261914" id="形状"></path>
        </g>
    </g>
</svg>