<?xml version="1.0" encoding="UTF-8"?>
<svg width="28px" height="40px" viewBox="0 0 28 40" version="1.1" xmlns="http://www.w3.org/2000/svg" xmlns:xlink="http://www.w3.org/1999/xlink">
    <!-- Generator: Sketch 61 (89581) - https://sketch.com -->
    <title>主机</title>
    <desc>Created with Sketch.</desc>
    <g id="页面-1" stroke="none" stroke-width="1" fill="none" fill-rule="evenodd">
        <g id="主机" fill-rule="nonzero">
            <path d="M1.83239547,-2.84217094e-15 L25.4687591,-2.84217094e-15 C26.6808803,-2.84217094e-15 27.2869409,0.606060612 27.2869409,1.81818184 L27.2869409,38.1818182 C27.2869409,39.3939394 26.6808803,40 25.4687591,40 L1.83239547,40 C0.620274245,40 0.0142136328,39.3939394 0.0142136328,38.1818182 L0.0142136328,1.81818184 C0.0142136328,0.606060612 0.620274245,-2.84217094e-15 1.83239547,-2.84217094e-15 Z" id="路径" fill="#6B9CFF"></path>
            <path d="M3.65057727,3.63636363 L23.6505773,3.63636363 L23.6505773,9.0909091 L3.65057727,9.0909091 L3.65057727,3.63636363 Z M3.65057727,10.9090909 L23.6505773,10.9090909 L23.6505773,16.3636364 L3.65057727,16.3636364 L3.65057727,10.9090909 Z" id="形状" fill="#E1EBFF"></path>
            <path d="M10.9233045,24.5454545 C10.9233045,26.0516857 12.1443461,27.2727273 13.6505773,27.2727273 C15.1568084,27.2727273 16.37785,26.0516857 16.37785,24.5454545 C16.37785,23.0392234 15.1568084,21.8181818 13.6505773,21.8181818 C12.1443461,21.8181818 10.9233045,23.0392234 10.9233045,24.5454545 Z" id="路径" fill="#FFFFFF"></path>
            <path d="M11.9233045,30.4545455 C11.9232093,31.1041827 12.269732,31.7045131 12.8323185,32.0293592 C13.394905,32.3542053 14.0880677,32.3542053 14.6506542,32.0293592 C15.2132407,31.7045131 15.5597634,31.1041827 15.5596682,30.4545455 C15.5597634,29.8049082 15.2132407,29.2045779 14.6506542,28.8797317 C14.0880677,28.5548856 13.394905,28.5548856 12.8323185,28.8797317 C12.269732,29.2045779 11.9232093,29.8049082 11.9233045,30.4545455 Z" id="路径" fill="#C9DBFF"></path>
        </g>
    </g>
</svg>