<?xml version="1.0" encoding="UTF-8"?>
<svg width="33px" height="33px" viewBox="0 0 33 33" version="1.1" xmlns="http://www.w3.org/2000/svg" xmlns:xlink="http://www.w3.org/1999/xlink">
    <!-- Generator: Sketch 61 (89581) - https://sketch.com -->
    <title>交换机</title>
    <desc>Created with Sketch.</desc>
    <g id="页面-1" stroke="none" stroke-width="1" fill="none" fill-rule="evenodd">
        <g id="交换机" fill="#D4A41D" fill-rule="nonzero">
            <path d="M5.48125,23.4703125 L8.56875,23.4703125 C9.00367424,23.4703125 9.35625,23.1177367 9.35625,22.6828125 L9.35625,21.9453125 C9.35625,21.5103883 9.00367424,21.1578125 8.56875,21.1578125 L5.48125,21.1578125 C5.04632576,21.1578125 4.69375,21.5103883 4.69375,21.9453125 L4.69375,22.6828125 C4.69375,23.1177367 5.04632576,23.4703125 5.48125,23.4703125 Z M5.48125,28.1078125 L8.56875,28.1078125 C9.00367424,28.1078125 9.35625,27.7552367 9.35625,27.3203125 L9.35625,26.5828125 C9.35625,26.1478883 9.00367424,25.7953125 8.56875,25.7953125 L5.48125,25.7953125 C5.04632576,25.7953125 4.69375,26.1478883 4.69375,26.5828125 L4.69375,27.3828125 C4.69375,27.8177367 5.04632576,28.1703125 5.48125,28.1703125 L5.48125,28.1078125 Z M12.80625,23.4703125 C13.111249,23.4703125 13.403756,23.3491521 13.6194228,23.1334853 C13.8350896,22.9178185 13.95625,22.6253115 13.95625,22.3203125 C13.95625,21.685185 13.4413775,21.1703125 12.80625,21.1703125 C12.1711225,21.1703125 11.65625,21.685185 11.65625,22.3203125 C11.65625,22.6253115 11.7774104,22.9178185 11.9930772,23.1334853 C12.208744,23.3491521 12.501251,23.4703125 12.80625,23.4703125 L12.80625,23.4703125 Z M12.80625,28.1078125 C13.111249,28.1078125 13.403756,27.9866521 13.6194228,27.7709853 C13.8350896,27.5553185 13.95625,27.2628115 13.95625,26.9578125 C13.95625,26.322685 13.4413775,25.8078125 12.80625,25.8078125 C12.501251,25.8078125 12.208744,25.9289729 11.9930772,26.1446397 C11.7774104,26.3603065 11.65625,26.6528135 11.65625,26.9578125 C11.65625,27.59294 12.1711225,28.1078125 12.80625,28.1078125 L12.80625,28.1078125 Z M17.46875,23.4703125 C17.773749,23.4703125 18.066256,23.3491521 18.2819228,23.1334853 C18.4975896,22.9178185 18.61875,22.6253115 18.61875,22.3203125 C18.61875,21.685185 18.1038775,21.1703125 17.46875,21.1703125 C17.163751,21.1703125 16.871244,21.2914729 16.6555772,21.5071397 C16.4399104,21.7228065 16.31875,22.0153135 16.31875,22.3203125 C16.31875,22.6253115 16.4399104,22.9178185 16.6555772,23.1334853 C16.871244,23.3491521 17.163751,23.4703125 17.46875,23.4703125 Z M17.46875,28.1078125 C18.1038775,28.1078125 18.61875,27.59294 18.61875,26.9578125 C18.61875,26.322685 18.1038775,25.8078125 17.46875,25.8078125 C17.163751,25.8078125 16.871244,25.9289729 16.6555772,26.1446397 C16.4399104,26.3603065 16.31875,26.6528135 16.31875,26.9578125 C16.31875,27.2628115 16.4399104,27.5553185 16.6555772,27.7709853 C16.871244,27.9866521 17.163751,28.1078125 17.46875,28.1078125 Z M22.09375,23.4703125 C22.398749,23.4703125 22.691256,23.3491521 22.9069228,23.1334853 C23.1225896,22.9178185 23.24375,22.6253115 23.24375,22.3203125 C23.24375,21.685185 22.7288775,21.1703125 22.09375,21.1703125 C21.788751,21.1703125 21.496244,21.2914729 21.2805772,21.5071397 C21.0649104,21.7228065 20.94375,22.0153135 20.94375,22.3203125 C20.94375,22.6253115 21.0649104,22.9178185 21.2805772,23.1334853 C21.496244,23.3491521 21.788751,23.4703125 22.09375,23.4703125 Z M22.09375,28.1078125 C22.7288775,28.1078125 23.24375,27.59294 23.24375,26.9578125 C23.24375,26.322685 22.7288775,25.8078125 22.09375,25.8078125 C21.788751,25.8078125 21.496244,25.9289729 21.2805772,26.1446397 C21.0649104,26.3603065 20.94375,26.6528135 20.94375,26.9578125 C20.94375,27.2628115 21.0649104,27.5553185 21.2805772,27.7709853 C21.496244,27.9866521 21.788751,28.1078125 22.09375,28.1078125 Z M26.75625,23.4703125 C27.061249,23.4703125 27.353756,23.3491521 27.5694228,23.1334853 C27.7850896,22.9178185 27.90625,22.6253115 27.90625,22.3203125 C27.90625,21.685185 27.3913775,21.1703125 26.75625,21.1703125 C26.1211225,21.1703125 25.60625,21.685185 25.60625,22.3203125 C25.60625,22.6253115 25.7274104,22.9178185 25.9430772,23.1334853 C26.158744,23.3491521 26.451251,23.4703125 26.75625,23.4703125 L26.75625,23.4703125 Z M26.75625,28.1078125 C27.3913775,28.1078125 27.90625,27.59294 27.90625,26.9578125 C27.90625,26.322685 27.3913775,25.8078125 26.75625,25.8078125 C26.451251,25.8078125 26.158744,25.9289729 25.9430772,26.1446397 C25.7274104,26.3603065 25.60625,26.6528135 25.60625,26.9578125 C25.60625,27.2628115 25.7274104,27.5553185 25.9430772,27.7709853 C26.158744,27.9866521 26.451251,28.1078125 26.75625,28.1078125 L26.75625,28.1078125 Z" id="形状"></path>
            <path d="M32.6562531,18.7453125 L30.24375,1.0328125 C30.1628377,0.459659693 29.6725856,0.0333535011 29.09375,0.0328125 L3.66875,0.0328125 C3.08991441,0.0333535011 2.59966228,0.459659693 2.51874967,1.0328125 L0.0187496727,18.7453125 L0.0187496727,31.3453125 C0.0187496727,31.708875 0.166253363,32.0568759 0.428003906,32.309194 C0.689754449,32.5615121 1.04294153,32.6964037 1.40625,32.6828125 L31.40625,32.6828125 C32.1105564,32.6366391 32.6577619,32.0511292 32.6562531,31.3453125 L32.6562531,18.7703125 L32.6562531,18.7453125 Z M15.15625,2.3828125 L15.00625,4.8828125 L26.31875,4.8828125 L26.31875,7.3828125 L14.81875,7.3828125 L14.65625,9.8828125 L7.34375,6.1328125 L15.15625,2.3828125 Z M7.14375,11.3453125 L18.60625,11.3453125 L18.70625,8.6328125 L26.40625,12.4453125 L18.40625,16.5203125 L18.50625,14.0203125 L6.85625,14.0203125 L7.14375,11.3453125 Z M30.33125,30.3453125 L2.35625,30.3453125 L2.35625,18.7453125 L30.31875,18.7453125 L30.33125,30.3453125 Z" id="形状"></path>
        </g>
    </g>
</svg>