<?xml version="1.0" encoding="UTF-8"?>
<svg width="36px" height="34px" viewBox="0 0 36 34" version="1.1" xmlns="http://www.w3.org/2000/svg" xmlns:xlink="http://www.w3.org/1999/xlink">
    <!-- Generator: Sketch 61 (89581) - https://sketch.com -->
    <title>路由器</title>
    <desc>Created with Sketch.</desc>
    <g id="页面-1" stroke="none" stroke-width="1" fill="none" fill-rule="evenodd">
        <g id="路由器" fill="#019C5A" fill-rule="nonzero">
            <path d="M35.2324867,29.1825276 L34.2993704,20.7847822 C34.2634712,19.2395729 32.9954461,17.9937496 31.4418829,17.9937496 L29.9446898,17.9937496 L29.9446898,1.11633776 C29.9446898,0.515007031 29.4571529,0.0274700521 28.8558221,0.0274700521 C28.2544161,0.0274700521 27.7669168,0.515007031 27.7669168,1.11633776 L27.7669168,17.993712 L19.0560504,17.993712 L19.0560504,1.11633776 C19.0560504,0.515007031 18.5685134,0.0274700521 17.9671827,0.0274700521 C17.3657767,0.0274700521 16.8782773,0.515007031 16.8782773,1.11633776 L16.8782773,17.993712 L8.16737331,17.993712 L8.16737331,1.11633776 C8.16737331,0.515007031 7.67983633,0.0274700521 7.0785056,0.0274700521 C6.47709961,0.0274700521 5.98963789,0.515007031 5.98963789,1.11633776 L5.98963789,17.993712 L3.8119401,17.993712 C2.25698464,17.993712 0.988169271,19.2417178 0.954339714,20.7885828 L0.00673580729,29.8581404 C0.000301041667,29.9201926 0.000338671875,29.9813417 0.00421458333,30.0416253 C0.00365013021,30.0637142 0.000903125,30.0851258 0.000903125,30.1073652 L0.000903125,30.924016 C0.000903125,32.5000444 1.28311484,33.7822937 2.85918086,33.7822937 L32.5307883,33.7822937 C34.1068543,33.7822937 35.389066,32.5000444 35.389066,30.924016 L35.389066,30.1073652 C35.389066,29.7834068 35.3323197,29.4731081 35.2324867,29.1825276 Z M32.5307883,31.6045583 L2.85914323,31.6045583 C2.48385716,31.6045583 2.17860091,31.2992645 2.17860091,30.924016 L2.17860091,30.1073652 C2.17860091,29.7321544 2.48385716,29.4268229 2.85914323,29.4268229 L32.5307507,29.4268229 C32.9059991,29.4268229 33.2113306,29.7321544 33.2113306,30.1073652 L33.2113306,30.924016 L33.2113306,30.924016 C33.2113306,31.2992645 32.9060367,31.6045583 32.5307883,31.6045583 Z" id="形状"></path>
        </g>
    </g>
</svg>