<?xml version="1.0" encoding="UTF-8"?>
<svg width="40px" height="38px" viewBox="0 0 40 38" version="1.1" xmlns="http://www.w3.org/2000/svg" xmlns:xlink="http://www.w3.org/1999/xlink">
    <!-- Generator: Sketch 61 (89581) - https://sketch.com -->
    <title>防火墙</title>
    <desc>Created with Sketch.</desc>
    <g id="页面-1" stroke="none" stroke-width="1" fill="none" fill-rule="evenodd">
        <g id="防火墙" fill-rule="nonzero">
            <path d="M0,10.003793 L0,17.5044719 L18.7516973,17.5044719 L18.7516973,10.003793 L0,10.003793 Z M21.2519236,10.003793 L21.2519236,17.5044719 L40.0036208,17.5044719 L40.0036208,10.003793 L21.2519236,10.003793 Z" id="形状" fill="#61C7D1"></path>
            <path d="M0,30.0056033 L0,31.2557165 C0.122300344,34.8179321 3.10034477,37.6115948 6.66310308,37.5062822 L18.7516973,37.5062822 L18.7516973,30.0056033 L0,30.0056033 Z M21.2519236,30.0056033 L21.2519236,37.5062822 L33.3405177,37.5062822 C36.903276,37.6115948 39.8813204,34.8179321 40.0036208,31.2557165 L40.0036208,30.0056033 L21.2519236,30.0056033 Z M0,20.0046982 L0,27.5053771 L10.0009052,27.5053771 L10.0009052,20.0046982 L0,20.0046982 Z M30.0027156,20.0046982 L30.0027156,27.5053771 L40.0036208,27.5053771 L40.0036208,20.0046982 L30.0027156,20.0046982 Z M12.5011315,20.0046982 L12.5011315,27.5053771 L27.5024893,27.5053771 L27.5024893,20.0046982 L12.5011315,20.0046982 Z" id="形状" fill="#86D3DB"></path>
            <path d="M0,6.25345352 L0,7.50356667 L10.0009052,7.50356667 L10.0009052,0.00288776557 L6.66310308,0.00288776557 C3.10034477,-0.102424796 0.122300344,2.6912379 0,6.25345352 L0,6.25345352 Z M30.0027156,0.00288776557 L30.0027156,7.50356667 L40.0036208,7.50356667 L40.0036208,6.67849198 C39.9244251,3.0298004 36.9890544,0.0889224653 33.3405177,0.00288776557 L30.0027156,0.00288776557 Z M12.5011315,0.00288776557 L12.5011315,7.50356667 L27.5024893,7.50356667 L27.5024893,0.00288776557 L12.5011315,0.00288776557 Z" id="形状" fill="#48BFCA"></path>
        </g>
    </g>
</svg>